<?xml version="1.0" encoding="UTF-8"?>
<svg width="143px" height="43px" viewBox="0 0 143 43" version="1.1" xmlns="http://www.w3.org/2000/svg" xmlns:xlink="http://www.w3.org/1999/xlink">
    <title>B745582A-3D18-468D-99BA-07D77D6FA707@1,5x</title>
    <g id="--main" stroke="none" stroke-width="1" fill="none" fill-rule="evenodd">
        <g id="QR-Code-for-payment-downloadd-app" transform="translate(-36.000000, -711.000000)" fill-rule="nonzero">
            <g id="Download_on_the_App_Store_Badge" transform="translate(36.000000, 711.000000)">
                <path d="M137.474273,42.2357727 L4.99332423,42.2357727 C2.24060774,42.2357727 0,39.9888296 0,37.2382249 L0,4.99015655 C0,2.23849595 2.24060774,0 4.99332423,0 L137.474273,0 C140.225933,0 142.545733,2.23849595 142.545733,4.99015655 L142.545733,37.2382249 C142.545733,39.9888296 140.225933,42.2357727 137.474273,42.2357727 L137.474273,42.2357727 Z" id="Path" fill="#A6A6A6"></path>
                <path d="M141.523627,37.2392808 C141.523627,39.4735532 139.713824,41.2833561 137.475328,41.2833561 L4.99332423,41.2833561 C2.75588417,41.2833561 0.939745943,39.4735532 0.939745943,37.2392808 L0.939745943,4.98910065 C0.939745943,2.75588417 2.75588417,0.939745943 4.99332423,0.939745943 L137.474273,0.939745943 C139.713824,0.939745943 141.523627,2.75588417 141.523627,4.98910065 L141.523627,37.2392808 L141.523627,37.2392808 Z" id="Path" fill="#000000"></path>
                <g id="Group" transform="translate(12.670732, 6.335366)" fill="#FFFFFF">
                    <path d="M19.1412522,14.5544473 C19.1106313,11.1512999 21.9277573,9.4956576 22.0565764,9.41857732 C20.4611201,7.09244214 17.9882156,6.77461795 17.1192146,6.74927648 C15.0422705,6.53070636 13.0276241,7.99206409 11.969618,7.99206409 C10.890494,7.99206409 9.26124906,6.77039437 7.50529681,6.80629477 C5.24568297,6.84113929 3.13178255,8.14939235 1.97241059,10.180933 C-0.420245939,14.3232064 1.36421546,20.4104372 3.65656202,23.7586781 C4.80326325,25.3984819 6.14319314,27.2294027 7.89703361,27.1649931 C9.61286187,27.0942482 10.2537897,26.0710866 12.3243985,26.0710866 C14.3760011,26.0710866 14.9778609,27.1649931 16.7665459,27.1238132 C18.6080256,27.0942482 19.7673975,25.4766181 20.8739748,23.8220317 C22.1991221,21.9425398 22.7312929,20.0915571 22.7524108,19.9965266 C22.7091191,19.9817441 19.1760967,18.633367 19.1412522,14.5544473 Z" id="Path"></path>
                    <path d="M15.7623904,4.54668093 C16.685242,3.39258844 17.3166668,1.82247359 17.1413884,0.229129067 C15.805682,0.288259149 14.1352572,1.1530366 13.1733375,2.28178762 C12.3222867,3.27644007 11.5620428,4.9067409 11.7584391,6.43989945 C13.258865,6.55182424 14.7994148,5.68282322 15.7623904,4.54668093 Z" id="Path"></path>
                </g>
                <g id="Group" transform="translate(44.347561, 19.006098)" fill="#FFFFFF">
                    <path d="M12.2958893,14.2587969 L9.89795334,14.2587969 L8.58442081,10.131306 L4.01873378,10.131306 L2.76749901,14.2587969 L0.43291667,14.2587969 L4.95636793,0.206955286 L7.7502643,0.206955286 L12.2958893,14.2587969 Z M8.18846044,8.3996393 L7.00057933,4.73040655 C6.87492791,4.35556406 6.63946347,3.47283641 6.29207424,2.08327949 L6.24983847,2.08327949 C6.11151631,2.68091567 5.88872261,3.56364332 5.58251326,4.73040655 L4.41575004,8.3996393 L8.18846044,8.3996393 L8.18846044,8.3996393 Z" id="Shape"></path>
                    <path d="M23.928677,9.0680204 C23.928677,10.7912399 23.4630276,12.1533436 22.5317289,13.1532755 C21.6975723,14.0433944 20.66174,14.4879259 19.4252878,14.4879259 C18.0906374,14.4879259 17.1318853,14.0085499 16.5479758,13.0497979 L16.50574,13.0497979 L16.50574,18.3873437 L14.2545733,18.3873437 L14.2545733,7.46200515 C14.2545733,6.37865758 14.2260641,5.26680086 14.1711576,4.126435 L16.1509595,4.126435 L16.2766109,5.73245025 L16.3188467,5.73245025 C17.0695875,4.52239536 18.2088975,3.91842381 19.7378325,3.91842381 C20.9331049,3.91842381 21.930925,4.39040858 22.7291811,5.33543399 C23.529549,6.2815153 23.928677,7.52535881 23.928677,9.0680204 Z M21.6352746,9.15038016 C21.6352746,8.16417487 21.4135368,7.35113624 20.9679494,6.71126429 C20.4811821,6.04393908 19.8275835,5.71027647 19.0082095,5.71027647 C18.4528091,5.71027647 17.9480916,5.89611387 17.4972247,6.2625092 C17.045302,6.63207221 16.7496516,7.11461592 16.6113294,7.7122521 C16.5416404,7.9910082 16.5067959,8.21908137 16.5067959,8.39858341 L16.5067959,10.0880143 C16.5067959,10.8250286 16.7327573,11.4469503 17.18468,11.9548355 C17.6366028,12.4627206 18.22368,12.7161353 18.9459118,12.7161353 C19.7937949,12.7161353 20.4537288,12.388808 20.9257136,11.7362653 C21.3987543,11.0826668 21.6352746,10.221057 21.6352746,9.15038016 Z" id="Shape"></path>
                    <path d="M35.5825826,9.0680204 C35.5825826,10.7912399 35.1169332,12.1533436 34.1845786,13.1532755 C33.3514779,14.0433944 32.3156456,14.4879259 31.0791934,14.4879259 C29.7445429,14.4879259 28.7857909,14.0085499 28.2029372,13.0497979 L28.1607015,13.0497979 L28.1607015,18.3873437 L25.9095348,18.3873437 L25.9095348,7.46200515 C25.9095348,6.37865758 25.8810256,5.26680086 25.8261191,4.126435 L27.805921,4.126435 L27.9315724,5.73245025 L27.9738082,5.73245025 C28.7234931,4.52239536 29.8628031,3.91842381 31.392794,3.91842381 C32.5870104,3.91842381 33.5848306,4.39040858 34.3851985,5.33543399 C35.1823987,6.2815153 35.5825826,7.52535881 35.5825826,9.0680204 Z M33.2891802,9.15038016 C33.2891802,8.16417487 33.0663865,7.35113624 32.6207991,6.71126429 C32.1340318,6.04393908 31.482545,5.71027647 30.6621151,5.71027647 C30.1056588,5.71027647 29.6019972,5.89611387 29.1500744,6.2625092 C28.6981517,6.63207221 28.4035572,7.11461592 28.265235,7.7122521 C28.1966019,7.9910082 28.1607015,8.21908137 28.1607015,8.39858341 L28.1607015,10.0880143 C28.1607015,10.8250286 28.3866629,11.4469503 28.8364738,11.9548355 C29.2883966,12.4616647 29.8754738,12.7161353 30.5998173,12.7161353 C31.4477005,12.7161353 32.1076344,12.388808 32.5796192,11.7362653 C33.0526598,11.0826668 33.2891802,10.221057 33.2891802,9.15038016 Z" id="Shape"></path>
                    <path d="M48.6123185,10.3181993 C48.6123185,11.5134716 48.197352,12.4859503 47.3642514,13.2366912 C46.4487911,14.0571211 45.1743266,14.4668081 43.5366345,14.4668081 C42.0245939,14.4668081 40.8124272,14.1753812 39.894855,13.5914717 L40.4164668,11.7151475 C41.4047839,12.3127836 42.4891874,12.6126576 43.6707331,12.6126576 C44.5186162,12.6126576 45.1785502,12.4204849 45.6526467,12.0382511 C46.1246315,11.6560174 46.3600959,11.1428527 46.3600959,10.5029808 C46.3600959,9.93279785 46.1658114,9.45236594 45.7761864,9.06274093 C45.3886732,8.67311593 44.7414099,8.31094418 43.8375644,7.97622568 C41.3773306,7.05865352 40.1482697,5.71450005 40.1482697,3.94693296 C40.1482697,2.79178458 40.5790745,1.84464737 41.4417402,1.10763314 C42.3012382,0.369563011 43.4479394,0.00105589432 44.8818439,0.00105589432 C46.1605319,0.00105589432 47.2227616,0.223849595 48.0706447,0.668381103 L47.5078531,2.50352543 C46.7159323,2.07272055 45.8205339,1.85731811 44.8184902,1.85731811 C44.0265695,1.85731811 43.4078154,2.05265855 42.9643398,2.44122766 C42.5894973,2.78861689 42.4015481,3.21203052 42.4015481,3.71358032 C42.4015481,4.26898073 42.6158947,4.72829476 43.0466996,5.08941061 C43.421542,5.42307322 44.1025939,5.78418908 45.090911,6.17381408 C46.29991,6.66058136 47.1879171,7.2297084 47.7591559,7.88225109 C48.3282829,8.53268199 48.6123185,9.3467765 48.6123185,10.3181993 Z" id="Path"></path>
                    <path d="M56.0553176,5.8158659 L53.5739659,5.8158659 L53.5739659,10.7352775 C53.5739659,11.9865123 54.0111062,12.6116017 54.8874984,12.6116017 C55.2897942,12.6116017 55.6234568,12.5767572 55.8874304,12.5070682 L55.9497281,14.2165611 C55.5062525,14.3823365 54.922343,14.4657522 54.1990554,14.4657522 C53.3099923,14.4657522 52.6152139,14.1943873 52.1136641,13.6527135 C51.6142261,13.1099839 51.3629232,12.199803 51.3629232,10.9211149 L51.3629232,5.81375412 L49.8846712,5.81375412 L49.8846712,4.12432321 L51.3629232,4.12432321 L51.3629232,2.26911689 L53.5739659,1.60179168 L53.5739659,4.12432321 L56.0553176,4.12432321 L56.0553176,5.8158659 Z" id="Path"></path>
                    <path d="M67.250965,9.10920028 C67.250965,10.6666444 66.8053776,11.9453324 65.9163146,12.9452643 C64.9839599,13.9747613 63.7464518,14.4879259 62.2037902,14.4879259 C60.717091,14.4879259 59.5334334,13.9948233 58.6507058,13.008618 C57.7679781,12.0224127 57.3266143,10.7775133 57.3266143,9.27708748 C57.3266143,7.70697263 57.7806489,6.42089335 58.6918857,5.42096143 C59.6010107,4.41997362 60.8279599,3.91947971 62.3706215,3.91947971 C63.8573207,3.91947971 65.0536489,4.41258236 65.9564386,5.39984354 C66.8201601,6.35753969 67.250965,7.59399194 67.250965,9.10920028 Z M64.9153268,9.18205699 C64.9153268,8.24759052 64.7157628,7.44616673 64.3113552,6.77778563 C63.8393705,5.96897058 63.164654,5.56561895 62.2903735,5.56561895 C61.3854721,5.56561895 60.6980849,5.97002648 60.2261001,6.77778563 C59.8216926,7.44722263 59.6221286,8.26131715 59.6221286,9.22429276 C59.6221286,10.1587592 59.8216926,10.960183 60.2261001,11.6275082 C60.7128674,12.4363233 61.3928633,12.8396749 62.2703115,12.8396749 C63.1298095,12.8396749 63.804526,12.4278761 64.2912932,11.6063903 C64.7062597,10.9253385 64.9153268,10.1154676 64.9153268,9.18205699 Z" id="Shape"></path>
                    <path d="M74.5683126,6.10623684 C74.3455189,6.06505696 74.1079427,6.04393908 73.8587517,6.04393908 C73.0668309,6.04393908 72.4544122,6.34275717 72.0236073,6.94144925 C71.6487649,7.46939641 71.4608157,8.13672162 71.4608157,8.94236898 L71.4608157,14.2587969 L69.2107049,14.2587969 L69.2318228,7.31734763 C69.2318228,6.14952851 69.2033136,5.08624293 69.1473512,4.12749089 L71.108147,4.12749089 L71.1905067,6.06611286 L71.2528045,6.06611286 C71.4903807,5.39984354 71.8652232,4.86344923 72.3783878,4.46115349 C72.8799376,4.09898174 73.4216114,3.91842381 74.005521,3.91842381 C74.2135322,3.91842381 74.4014813,3.93320634 74.5683126,3.95960369 L74.5683126,6.10623684 Z" id="Path"></path>
                    <path d="M84.636265,8.71323991 C84.636265,9.11659154 84.6098676,9.45658951 84.5539052,9.73428972 L77.8004052,9.73428972 C77.8268025,10.7352775 78.1530739,11.5008009 78.7802751,12.0287481 C79.3494021,12.5007328 80.0853605,12.7372532 80.989206,12.7372532 C81.9891379,12.7372532 82.9014306,12.5778131 83.7218605,12.2578771 L84.0745292,13.8206007 C83.1157771,14.2387349 81.9838584,14.4467461 80.6777172,14.4467461 C79.1065464,14.4467461 77.8732619,13.9842643 76.9757517,13.0603568 C76.0803533,12.1364493 75.6315982,10.8957735 75.6315982,9.33938524 C75.6315982,7.81150617 76.0486765,6.53915351 76.8838889,5.52443907 C77.7581694,4.4410915 78.9397151,3.89941772 80.4264143,3.89941772 C81.8867162,3.89941772 82.9922375,4.4410915 83.7429784,5.52443907 C84.3374469,6.38499294 84.636265,7.44933441 84.636265,8.71323991 Z M82.4896318,8.12933036 C82.5044143,7.46200515 82.357645,6.88548685 82.0524916,6.39871957 C81.6628666,5.77257424 81.0641745,5.46002952 80.2585271,5.46002952 C79.5225688,5.46002952 78.9238767,5.76518298 78.4666745,6.37760168 C78.091832,6.86436896 77.8690383,7.44827852 77.8004052,8.12827446 L82.4896318,8.12827446 L82.4896318,8.12933036 Z" id="Shape"></path>
                </g>
                <g id="Group" transform="translate(45.403456, 6.335366)" fill="#FFFFFF">
                    <path d="M6.38816062,4.23308032 C6.38816062,5.47586793 6.01542993,6.4113903 5.27102444,7.03964742 C4.58152545,7.6193334 3.60165552,7.90970434 2.33247055,7.90970434 C1.70315754,7.90970434 1.16465143,7.88225109 0.713784559,7.82734458 L0.713784559,1.03688822 C1.30191769,0.941857732 1.93545429,0.893286593 2.6196738,0.893286593 C3.8286728,0.893286593 4.73990959,1.15620428 5.35444009,1.68203965 C6.04288318,2.27650815 6.38816062,3.12650308 6.38816062,4.23308032 Z M5.2213974,4.26370126 C5.2213974,3.45805389 5.00810675,2.84035572 4.58152545,2.40955083 C4.15494414,1.97980185 3.53196649,1.76439941 2.71153661,1.76439941 C2.36309148,1.76439941 2.06638518,1.78762908 1.8203618,1.83620022 L1.8203618,6.99846754 C1.95657217,7.01958543 2.20576323,7.02908848 2.56793498,7.02908848 C3.41476222,7.02908848 4.06836081,6.79362404 4.52873073,6.32269518 C4.98910065,5.85176631 5.2213974,5.165435 5.2213974,4.26370126 Z" id="Shape"></path>
                    <path d="M12.5746454,5.31853968 C12.5746454,6.08406306 12.3560753,6.71126429 11.9189351,7.20331104 C11.4606769,7.70908442 10.8535377,7.96144316 10.0954056,7.96144316 C9.36472671,7.96144316 8.78292894,7.71964336 8.34895637,7.23393197 C7.9160397,6.74927648 7.69958137,6.13791367 7.69958137,5.40089944 C7.69958137,4.63009659 7.92237507,3.99761589 8.37007426,3.50662503 C8.81777345,3.01563417 9.41963321,2.7696108 10.1777653,2.7696108 C10.9084442,2.7696108 11.4955214,3.0114106 11.9400529,3.49606609 C12.3624107,3.96699495 12.5746454,4.57519008 12.5746454,5.31853968 Z M11.4268883,5.35444009 C11.4268883,4.89512606 11.3276342,4.50127748 11.130182,4.17289435 C10.8978853,3.77587808 10.5673903,3.57736995 10.1376413,3.57736995 C9.69310984,3.57736995 9.35522366,3.77587808 9.12292691,4.17289435 C8.92441878,4.50127748 8.82622061,4.90146142 8.82622061,5.37450208 C8.82622061,5.83381611 8.92547467,6.22766469 9.12292691,6.55604782 C9.36261492,6.95306409 9.69627752,7.15157222 10.1270824,7.15157222 C10.5494401,7.15157222 10.8809909,6.9498964 11.1196231,6.54548888 C11.3244666,6.21077038 11.4268883,5.81375412 11.4268883,5.35444009 Z" id="Shape"></path>
                    <path d="M20.8697512,2.87097665 L19.3123071,7.84846247 L18.2986485,7.84846247 L17.6534971,5.6870468 C17.4898335,5.1474848 17.3567908,4.61109049 17.2533132,4.07891975 L17.2332512,4.07891975 C17.1371648,4.62587301 17.0041221,5.16121143 16.8330672,5.6870468 L16.1477918,7.84846247 L15.1225184,7.84846247 L13.657993,2.87097665 L14.7951912,2.87097665 L15.3579829,5.23723582 C15.4941932,5.79685981 15.606118,6.33008644 15.695869,6.83480392 L15.715931,6.83480392 C15.7982908,6.41878156 15.9345012,5.88872261 16.1266739,5.24779476 L16.8330672,2.87203255 L17.734801,2.87203255 L18.4116292,5.19711183 C18.5752928,5.76412708 18.7083355,6.31002445 18.8107573,6.83585982 L18.8413782,6.83585982 C18.9163467,6.32375107 19.0293274,5.77785371 19.1792644,5.19711183 L19.7832359,2.87203255 L20.8697512,2.87203255 L20.8697512,2.87097665 Z" id="Path"></path>
                    <path d="M26.606425,7.84846247 L25.4998478,7.84846247 L25.4998478,4.99754781 C25.4998478,4.11904374 25.1661852,3.6797917 24.4967482,3.6797917 C24.168365,3.6797917 23.9033356,3.80016365 23.6974362,4.04196345 C23.4936486,4.28376325 23.3901709,4.56885471 23.3901709,4.89512606 L23.3901709,7.84740657 L22.2835937,7.84740657 L22.2835937,4.2932663 C22.2835937,3.85612605 22.2698671,3.3820295 22.2434697,2.86886486 L23.2159484,2.86886486 L23.2676872,3.64705898 L23.2983081,3.64705898 C23.4271272,3.40525918 23.6193,3.20569515 23.8716587,3.04625511 C24.1715327,2.86041771 24.5073071,2.76644311 24.8747583,2.76644311 C25.3393518,2.76644311 25.7258092,2.91638011 26.0330744,3.21730999 C26.4153082,3.5858171 26.606425,4.13593804 26.606425,4.86661691 L26.606425,7.84846247 L26.606425,7.84846247 Z" id="Path"></path>
                    <polygon id="Path" points="29.6579596 7.84846247 28.5524383 7.84846247 28.5524383 0.587077241 29.6579596 0.587077241"></polygon>
                    <path d="M36.1728276,5.31853968 C36.1728276,6.08406306 35.9542574,6.71126429 35.5171172,7.20331104 C35.058859,7.70908442 34.4506639,7.96144316 33.6935877,7.96144316 C32.9618529,7.96144316 32.3800552,7.71964336 31.9471385,7.23393197 C31.5142218,6.74927648 31.2977635,6.13791367 31.2977635,5.40089944 C31.2977635,4.63009659 31.5205572,3.99761589 31.9682564,3.50662503 C32.4159556,3.01563417 33.0178153,2.7696108 33.7748916,2.7696108 C34.5066263,2.7696108 35.0926477,3.0114106 35.5382351,3.49606609 C35.9605928,3.96699495 36.1728276,4.57519008 36.1728276,5.31853968 Z M35.0240145,5.35444009 C35.0240145,4.89512606 34.9247605,4.50127748 34.7273082,4.17289435 C34.4960674,3.77587808 34.1645166,3.57736995 33.7358235,3.57736995 C33.2902361,3.57736995 32.9523499,3.77587808 32.721109,4.17289435 C32.5226009,4.50127748 32.4244027,4.90146142 32.4244027,5.37450208 C32.4244027,5.83381611 32.5236568,6.22766469 32.721109,6.55604782 C32.960797,6.95306409 33.2944596,7.15157222 33.7252645,7.15157222 C34.1476223,7.15157222 34.4781172,6.9498964 34.7167493,6.54548888 C34.9226487,6.21077038 35.0240145,5.81375412 35.0240145,5.35444009 Z" id="Shape"></path>
                    <path d="M41.5283235,7.84846247 L40.534727,7.84846247 L40.4523672,7.27511185 L40.4217463,7.27511185 C40.0817483,7.73231409 39.5970928,7.96144316 38.9677798,7.96144316 C38.4979068,7.96144316 38.1177849,7.81045027 37.8316375,7.51057629 C37.5718875,7.23815555 37.4420125,6.89921347 37.4420125,6.49691774 C37.4420125,5.88872261 37.6954272,5.42518501 38.2054241,5.10419313 C38.7143652,4.78320126 39.4302615,4.62587301 40.3520573,4.63326427 L40.3520573,4.54034557 C40.3520573,3.8846352 40.0078357,3.55730796 39.3183367,3.55730796 C38.8273459,3.55730796 38.3944292,3.68084759 38.0206426,3.92581507 L37.7957371,3.19935978 C38.2582188,2.91321242 38.8294577,2.7696108 39.5031182,2.7696108 C40.80398,2.7696108 41.4565227,3.4559421 41.4565227,4.82860472 L41.4565227,6.66163725 C41.4565227,7.15896348 41.4808083,7.55492385 41.5283235,7.84846247 Z M40.3795105,6.13791367 L40.3795105,5.3702785 C39.1588967,5.34916062 38.5485898,5.68387911 38.5485898,6.3733781 C38.5485898,6.63312811 38.6182788,6.82741266 38.7608245,6.95728766 C38.9033703,7.08716266 39.0849841,7.15157222 39.3014424,7.15157222 C39.5442981,7.15157222 39.7713154,7.07449193 39.9782707,6.92138726 C40.1862819,6.76722669 40.3140451,6.57188624 40.3615603,6.33219823 C40.3731752,6.27834762 40.3795105,6.21288217 40.3795105,6.13791367 Z" id="Shape"></path>
                    <path d="M47.8161742,7.84846247 L46.8341925,7.84846247 L46.7824537,7.04915047 L46.7518327,7.04915047 C46.4382321,7.6573456 45.9039496,7.96144316 45.1532087,7.96144316 C44.5534608,7.96144316 44.0540227,7.72597873 43.6580624,7.25504986 C43.262102,6.78412099 43.0646498,6.17275818 43.0646498,5.42201732 C43.0646498,4.61636996 43.2789963,3.96382727 43.7098012,3.46544515 C44.1268795,3.00085165 44.6379323,2.7685549 45.2461274,2.7685549 C45.9145085,2.7685549 46.3822697,2.99346039 46.6483551,3.44432727 L46.669473,3.44432727 L46.669473,0.587077241 L47.7771061,0.587077241 L47.7771061,6.50747668 C47.7771061,6.99213218 47.7897768,7.43877547 47.8161742,7.84846247 Z M46.669473,5.74934456 L46.669473,4.91941163 C46.669473,4.77581 46.658914,4.65966163 46.638852,4.5709665 C46.5765543,4.30488114 46.4424557,4.08103154 46.2386681,3.90047361 C46.0327687,3.71991568 45.7846335,3.62910877 45.4984862,3.62910877 C45.0856315,3.62910877 44.7625278,3.79277239 44.5249516,4.12115552 C44.2894872,4.44953866 44.1701711,4.8687287 44.1701711,5.38083745 C44.1701711,5.8728842 44.2831518,6.27201225 44.5101691,6.5792775 C44.7498571,6.90660474 45.0729608,7.07026835 45.4773683,7.07026835 C45.8405959,7.07026835 46.1309669,6.93405799 46.3516488,6.66058136 C46.5649394,6.40822262 46.669473,6.10412505 46.669473,5.74934456 Z" id="Shape"></path>
                    <path d="M57.280155,5.31853968 C57.280155,6.08406306 57.0615848,6.71126429 56.6244446,7.20331104 C56.1661865,7.70908442 55.5601031,7.96144316 54.8009151,7.96144316 C54.0712921,7.96144316 53.4894944,7.71964336 53.0544659,7.23393197 C52.6215492,6.74927648 52.4050909,6.13791367 52.4050909,5.40089944 C52.4050909,4.63009659 52.6278846,3.99761589 53.0755838,3.50662503 C53.523283,3.01563417 54.1251428,2.7696108 54.8843308,2.7696108 C55.6139537,2.7696108 56.2020869,3.0114106 56.6455625,3.49606609 C57.0679202,3.96699495 57.280155,4.57519008 57.280155,5.31853968 Z M56.1334537,5.35444009 C56.1334537,4.89512606 56.0341997,4.50127748 55.8367474,4.17289435 C55.6033948,3.77587808 55.2739558,3.57736995 54.8431509,3.57736995 C54.3996753,3.57736995 54.0617891,3.77587808 53.8284364,4.17289435 C53.6299283,4.50127748 53.5317301,4.90146142 53.5317301,5.37450208 C53.5317301,5.83381611 53.6309842,6.22766469 53.8284364,6.55604782 C54.0681245,6.95306409 54.4017871,7.15157222 54.8325919,7.15157222 C55.2549497,7.15157222 55.5875564,6.9498964 55.8261885,6.54548888 C56.0299761,6.21077038 56.1334537,5.81375412 56.1334537,5.35444009 Z" id="Shape"></path>
                    <path d="M63.2301195,7.84846247 L62.1245981,7.84846247 L62.1245981,4.99754781 C62.1245981,4.11904374 61.7909355,3.6797917 61.1204426,3.6797917 C60.7920595,3.6797917 60.52703,3.80016365 60.3221865,4.04196345 C60.117343,4.28376325 60.0149213,4.56885471 60.0149213,4.89512606 L60.0149213,7.84740657 L58.9072881,7.84740657 L58.9072881,4.2932663 C58.9072881,3.85612605 58.8946174,3.3820295 58.86822,2.86886486 L59.8396428,2.86886486 L59.8913816,3.64705898 L59.9220026,3.64705898 C60.0518776,3.40525918 60.2440503,3.20569515 60.4953532,3.04625511 C60.7962831,2.86041771 61.1310016,2.76644311 61.4995087,2.76644311 C61.9630463,2.76644311 62.3495036,2.91638011 62.6567688,3.21730999 C63.0400585,3.5858171 63.2301195,4.13593804 63.2301195,4.86661691 L63.2301195,7.84846247 L63.2301195,7.84846247 Z" id="Path"></path>
                    <path d="M70.6773421,3.69985369 L69.45884,3.69985369 L69.45884,6.11785168 C69.45884,6.73238217 69.6752984,7.03964742 70.1039915,7.03964742 C70.3024996,7.03964742 70.4672191,7.02275311 70.5970941,6.9879086 L70.6256033,7.82734458 C70.4070331,7.90970434 70.1198299,7.95088422 69.7661053,7.95088422 C69.328965,7.95088422 68.9889671,7.81784153 68.7429437,7.55175616 C68.4958644,7.2856708 68.3733807,6.8379716 68.3733807,6.20971449 L68.3733807,3.69985369 L67.6458695,3.69985369 L67.6458695,2.87097665 L68.3733807,2.87097665 L68.3733807,1.95868396 L69.4577841,1.63135672 L69.4577841,2.86992076 L70.6762862,2.86992076 L70.6762862,3.69985369 L70.6773421,3.69985369 Z" id="Path"></path>
                    <path d="M76.5354438,7.84846247 L75.4278106,7.84846247 L75.4278106,5.01866569 C75.4278106,4.126435 75.094148,3.6797917 74.4257669,3.6797917 C73.9126023,3.6797917 73.5620454,3.93848581 73.3698726,4.45587402 C73.3371399,4.56463114 73.3181338,4.69767382 73.3181338,4.85394618 L73.3181338,7.84740657 L72.2126124,7.84740657 L72.2126124,0.587077241 L73.3181338,0.587077241 L73.3181338,3.586873 L73.3392517,3.586873 C73.6876968,3.04097564 74.1871348,2.7685549 74.834398,2.7685549 C75.2926561,2.7685549 75.6717222,2.9184919 75.9726521,3.21942178 C76.3474946,3.59426426 76.5354438,4.15177646 76.5354438,4.88879069 L76.5354438,7.84846247 L76.5354438,7.84846247 Z" id="Path"></path>
                    <path d="M82.5783269,5.12425513 C82.5783269,5.32276326 82.5635444,5.48959456 82.5371471,5.62580493 L79.2184712,5.62580493 C79.2332537,6.11785168 79.3916379,6.49269416 79.6989031,6.75244416 C79.979771,6.98474091 80.3419428,7.10088929 80.7854184,7.10088929 C81.2764092,7.10088929 81.7241084,7.02275311 82.1274601,6.86542486 L82.3006267,7.63411592 C81.828642,7.83895942 81.2732416,7.94138117 80.6302019,7.94138117 C79.8593991,7.94138117 79.2522598,7.71436389 78.8130078,7.26032933 C78.371644,6.80629477 78.1530739,6.19704375 78.1530739,5.43257627 C78.1530739,4.68183541 78.3568615,4.05674597 78.7676043,3.55836385 C79.1962974,3.02619312 79.7759834,2.76010775 80.5077182,2.76010775 C81.2236145,2.76010775 81.7674001,3.02619312 82.1348513,3.55836385 C82.4315576,3.98072158 82.5783269,4.50338927 82.5783269,5.12425513 Z M81.5224326,4.83810777 C81.5308798,4.50972463 81.4580231,4.22674496 81.3080861,3.98811284 C81.1159133,3.68084759 80.8234306,3.52668702 80.4274702,3.52668702 C80.0663544,3.52668702 79.7717598,3.67662402 79.5468544,3.9775539 C79.3631287,4.21724191 79.2543716,4.50338927 79.2184712,4.83810777 L81.5224326,4.83810777 Z" id="Shape"></path>
                </g>
            </g>
        </g>
    </g>
</svg>