<?xml version="1.0" encoding="UTF-8"?>
<svg width="144px" height="43px" viewBox="0 0 144 43" version="1.1" xmlns="http://www.w3.org/2000/svg" xmlns:xlink="http://www.w3.org/1999/xlink">
    <title>4DDF9349-60C3-4929-88D6-10F473D52536@1,5x</title>
    <defs>
        <linearGradient x1="61.0301652%" y1="4.94958549%" x2="26.4625815%" y2="71.9258683%" id="linearGradient-1">
            <stop stop-color="#00A0FF" offset="0%"></stop>
            <stop stop-color="#00A1FF" offset="0.6569999%"></stop>
            <stop stop-color="#00BEFF" offset="26.01%"></stop>
            <stop stop-color="#00D2FF" offset="51.22%"></stop>
            <stop stop-color="#00DFFF" offset="76.04%"></stop>
            <stop stop-color="#00E3FF" offset="100%"></stop>
        </linearGradient>
        <linearGradient x1="107.630451%" y1="50.0004315%" x2="-130.551706%" y2="50.0004315%" id="linearGradient-2">
            <stop stop-color="#FFE000" offset="0%"></stop>
            <stop stop-color="#FFBD00" offset="40.87%"></stop>
            <stop stop-color="#FFA500" offset="77.54%"></stop>
            <stop stop-color="#FF9C00" offset="100%"></stop>
        </linearGradient>
        <linearGradient x1="86.243474%" y1="30.90425%" x2="-50.1292379%" y2="136.019454%" id="linearGradient-3">
            <stop stop-color="#FF3A44" offset="0%"></stop>
            <stop stop-color="#C31162" offset="100%"></stop>
        </linearGradient>
        <linearGradient x1="-18.8105628%" y1="-11.8250802%" x2="42.0848536%" y2="35.086648%" id="linearGradient-4">
            <stop stop-color="#32A071" offset="0%"></stop>
            <stop stop-color="#2DA771" offset="6.85%"></stop>
            <stop stop-color="#15CF74" offset="47.62%"></stop>
            <stop stop-color="#06E775" offset="80.09%"></stop>
            <stop stop-color="#00F076" offset="100%"></stop>
        </linearGradient>
    </defs>
    <g id="--main" stroke="none" stroke-width="1" fill="none" fill-rule="evenodd">
        <g id="QR-Code-for-payment-downloadd-app" transform="translate(-195.000000, -711.000000)">
            <g id="Group-3" transform="translate(36.000000, 711.000000)">
                <g id="Google_Play_Store_badge_EN" transform="translate(159.000000, 0.000000)">
                    <path d="M138.664704,42 L5.33529563,42 C2.3947901,42 0,39.6329177 0,36.75 L0,5.25 C0,2.35660848 2.3947901,0 5.33529563,0 L138.664704,0 C141.602561,0 144,2.35660848 144,5.25 L144,36.75 C144,39.6329177 141.602561,42 138.664704,42 Z" id="Path" fill="#000000" fill-rule="nonzero"></path>
                    <path d="M138.659603,0.850331126 C141.125828,0.850331126 143.144371,2.85562914 143.144371,5.31125828 L143.144371,37.1788079 C143.144371,39.6344371 141.139073,41.6397351 138.659603,41.6397351 L5.33509934,41.6397351 C2.86887417,41.6397351 0.850331126,39.6344371 0.850331126,37.1788079 L0.850331126,5.31125828 C0.850331126,2.85562914 2.85562914,0.850331126 5.33509934,0.850331126 C5.33509934,0.850331126 138.659603,0.850331126 138.659603,0.850331126 Z M138.659603,0 L5.33509934,0 C2.39470199,0 0,2.39470199 0,5.31125828 L0,37.1788079 C0,40.1059603 2.39470199,42.4900662 5.33509934,42.4900662 L138.659603,42.4900662 C141.597351,42.4900662 143.994702,40.1059603 143.994702,37.1788079 L143.994702,5.31125828 C143.994702,2.39470199 141.597351,0 138.659603,0 Z" id="Shape" fill="#A6A6A6"></path>
                    <path d="M75.8569536,14.0556291 C74.8953642,14.0556291 74.0847682,13.7192053 73.4437086,13.0569536 C72.807947,12.413245 72.4529801,11.5258278 72.4688742,10.6198675 C72.4688742,9.65298013 72.797351,8.83443709 73.4437086,8.18543046 C74.0821192,7.52317881 74.8927152,7.18675497 75.8543046,7.18675497 C76.805298,7.18675497 77.615894,7.52317881 78.2675497,8.18543046 C78.9139073,8.85562914 79.2423841,9.67417219 79.2423841,10.6198675 C79.2317881,11.589404 78.9033113,12.407947 78.2675497,13.0543046 C77.6291391,13.7218543 76.818543,14.0556291 75.8569536,14.0556291 Z M47.2450331,14.0556291 C46.3046358,14.0556291 45.4887417,13.7245033 44.8211921,13.0701987 C44.1589404,12.418543 43.8225166,11.594702 43.8225166,10.6225166 C43.8225166,9.65033113 44.1589404,8.82649007 44.8211921,8.17483444 C45.4754967,7.5205298 46.2913907,7.18940397 47.2450331,7.18940397 C47.7112583,7.18940397 48.1642384,7.28211921 48.5986755,7.47019868 C49.0251656,7.65298013 49.3721854,7.90198675 49.6291391,8.20662252 L49.6927152,8.28344371 L48.9748344,8.98807947 L48.9006623,8.90066225 C48.4953642,8.41854305 47.9523179,8.18278146 47.2344371,8.18278146 C46.5933775,8.18278146 46.0344371,8.41059603 45.5735099,8.86092715 C45.1099338,9.31390728 44.8741722,9.90728477 44.8741722,10.6251656 C44.8741722,11.3430464 45.1099338,11.9364238 45.5735099,12.389404 C46.0344371,12.8397351 46.5933775,13.0675497 47.2344371,13.0675497 C47.9178808,13.0675497 48.4927152,12.8397351 48.9403974,12.389404 C49.205298,12.1245033 49.3695364,11.7536424 49.4278146,11.2847682 L47.1258278,11.2847682 L47.1258278,10.2940397 L50.415894,10.2940397 L50.4291391,10.384106 C50.4529801,10.5509934 50.4768212,10.7231788 50.4768212,10.8821192 C50.4768212,11.7960265 50.2013245,12.5350993 49.6556291,13.0807947 C49.0357616,13.7271523 48.2251656,14.0556291 47.2450331,14.0556291 Z M85.2874172,13.9152318 L84.2728477,13.9152318 L81.1655629,8.94304636 L81.192053,9.8384106 L81.192053,13.9125828 L80.1774834,13.9125828 L80.1774834,7.32980132 L81.3350993,7.32980132 L81.3668874,7.38013245 L84.2887417,12.0635762 L84.2622517,11.1708609 L84.2622517,7.32980132 L85.2874172,7.32980132 L85.2874172,13.9152318 L85.2874172,13.9152318 Z M68.2331126,13.9152318 L67.205298,13.9152318 L67.205298,8.3205298 L65.4225166,8.3205298 L65.4225166,7.32980132 L70.013245,7.32980132 L70.013245,8.3205298 L68.2304636,8.3205298 L68.2304636,13.9152318 L68.2331126,13.9152318 Z M64.5854305,13.9152318 L63.5602649,13.9152318 L63.5602649,7.32980132 L64.5854305,7.32980132 L64.5854305,13.9152318 Z M58.8238411,13.9152318 L57.7986755,13.9152318 L57.7986755,8.3205298 L56.015894,8.3205298 L56.015894,7.32980132 L60.6066225,7.32980132 L60.6066225,8.3205298 L58.8238411,8.3205298 L58.8238411,13.9152318 Z M55.3668874,13.9046358 L51.4357616,13.9046358 L51.4357616,7.32980132 L55.3668874,7.32980132 L55.3668874,8.3205298 L52.4635762,8.3205298 L52.4635762,10.1271523 L55.0834437,10.1271523 L55.0834437,11.1072848 L52.4635762,11.1072848 L52.4635762,12.9139073 L55.3668874,12.9139073 L55.3668874,13.9046358 Z M74.1960265,12.3761589 C74.6543046,12.8344371 75.210596,13.0649007 75.8569536,13.0649007 C76.5218543,13.0649007 77.0649007,12.8397351 77.5178808,12.3761589 C77.9682119,11.9258278 78.1960265,11.3350993 78.1960265,10.6225166 C78.1960265,9.90993377 77.9682119,9.31655629 77.5205298,8.86887417 C77.0622517,8.41059603 76.5033113,8.18013245 75.8596026,8.18013245 C75.194702,8.18013245 74.6516556,8.40529801 74.2013245,8.86887417 C73.7509934,9.3192053 73.5231788,9.90993377 73.5231788,10.6225166 C73.5231788,11.3350993 73.7483444,11.9284768 74.1960265,12.3761589 L74.1960265,12.3761589 Z" id="Shape" fill="#FFFFFF" fill-rule="nonzero"></path>
                    <path d="M72.3735099,23.1099338 C69.8701987,23.1099338 67.8410596,25.0092715 67.8410596,27.6291391 C67.8410596,30.2251656 69.8834437,32.1483444 72.3735099,32.1483444 C74.8768212,32.1483444 76.9059603,30.2357616 76.9059603,27.6291391 C76.9059603,25.0092715 74.8768212,23.1099338 72.3735099,23.1099338 Z M72.3735099,30.3576159 C71.0039735,30.3576159 69.8251656,29.2238411 69.8251656,27.618543 C69.8251656,25.989404 71.0066225,24.8794702 72.3735099,24.8794702 C73.7430464,24.8794702 74.9218588,25.989404 74.9218588,27.618543 C74.9245033,29.2344371 73.7430464,30.3576159 72.3735099,30.3576159 Z M62.4847682,23.1099338 C59.981457,23.1099338 57.9523179,25.0092715 57.9523179,27.6291391 C57.9523179,30.2251656 59.994702,32.1483444 62.4847682,32.1483444 C64.9880795,32.1483444 67.0172185,30.2357616 67.0172185,27.6291391 C67.0172185,25.0092715 64.9854305,23.1099338 62.4847682,23.1099338 Z M62.4847682,30.3576159 C61.1152318,30.3576159 59.9364238,29.2238411 59.9364238,27.618543 C59.9364238,25.989404 61.1178808,24.8794702 62.4847682,24.8794702 C63.8543046,24.8794702 65.0331126,25.989404 65.0331126,27.618543 C65.0331126,29.2344371 63.8543046,30.3576159 62.4847682,30.3576159 Z M50.7178808,24.4900662 L50.7178808,26.402649 L55.3086093,26.402649 C55.1682119,27.4754967 54.813245,28.2675497 54.2701987,28.810596 C53.597351,29.4834437 52.5589404,30.2145695 50.7284768,30.2145695 C47.9072848,30.2145695 45.7006623,27.9364238 45.7006623,25.1152318 C45.7006623,22.2940397 47.9072848,20.015894 50.7284768,20.015894 C52.2516556,20.015894 53.3615894,20.6172185 54.1854305,21.3854305 L55.5417219,20.0291391 C54.397351,18.9324503 52.8741722,18.0927152 50.7390728,18.0927152 C46.8688742,18.0927152 43.6211921,21.2450331 43.6211921,25.1046358 C43.6211921,28.9748344 46.8662252,32.1165563 50.7390728,32.1165563 C52.8291391,32.1165563 54.397351,31.4331126 55.6370861,30.1456954 C56.9006623,28.8821192 57.3006623,27.0993377 57.3006623,25.6609272 C57.3006623,25.213245 57.2662252,24.810596 57.194702,24.4688742 L50.7152318,24.4688742 C50.7178808,24.4662252 50.7178808,24.4900662 50.7178808,24.4900662 Z M98.8476821,25.9788079 C98.4688742,24.9642384 97.3245033,23.0993377 94.9774834,23.0993377 C92.6516556,23.0993377 90.7178808,24.9298013 90.7178808,27.618543 C90.7178808,30.1562914 92.6304636,32.1377483 95.202649,32.1377483 C97.2688742,32.1377483 98.4715232,30.8741722 98.9668874,30.1324503 L97.4331126,29.1046358 C96.9245033,29.8596026 96.2172185,30.3549669 95.213245,30.3549669 C94.1986755,30.3549669 93.4887417,29.8940397 93.0172185,28.9854305 L99.0596026,26.4821192 C99.0596026,26.4847682 98.8476821,25.9788079 98.8476821,25.9788079 Z M92.6860927,27.4887417 C92.6384106,25.7430464 94.0423841,24.8556291 95.0463576,24.8556291 C95.8384106,24.8556291 96.4980132,25.2450331 96.7231788,25.8119205 L92.6860927,27.4887417 Z M87.7774834,31.8675497 L89.7615894,31.8675497 L89.7615894,18.5907285 L87.7774834,18.5907285 L87.7774834,31.8675497 Z M84.5192053,24.1139073 L84.4476821,24.1139073 C84,23.581457 83.1496689,23.0993377 82.0635762,23.0993377 C79.8092715,23.0993377 77.7324503,25.0834437 77.7324503,27.6317881 C77.7324503,30.1695364 79.7986755,32.1298013 82.0635762,32.1298013 C83.1364238,32.1298013 84,31.6450331 84.4476821,31.1019868 L84.5192053,31.1019868 L84.5192053,31.7509934 C84.5192053,33.4754967 83.597351,34.405298 82.1112583,34.405298 C80.8953642,34.405298 80.1403974,33.5311258 79.8331126,32.8 L78.1086093,33.5205298 C78.6039735,34.7125828 79.9258278,36.1880795 82.1086093,36.1880795 C84.4344371,36.1880795 86.405298,34.818543 86.405298,31.4781457 L86.405298,23.3695364 L84.5298013,23.3695364 L84.5298013,24.1139073 C84.5324503,24.1139073 84.5192053,24.1139073 84.5192053,24.1139073 Z M82.2410596,30.3576159 C80.8715232,30.3576159 79.7271523,29.213245 79.7271523,27.6317881 C79.7271523,26.0370861 80.8715232,24.8821192 82.2410596,24.8821192 C83.597351,24.8821192 84.6490066,26.0503311 84.6490066,27.6317881 C84.6622517,29.213245 83.6,30.3576159 82.2410596,30.3576159 Z M108.137748,18.5907285 L103.393377,18.5907285 L103.393377,31.8675497 L105.377483,31.8675497 L105.377483,26.8397351 L108.140397,26.8397351 C110.336424,26.8397351 112.495364,25.2476821 112.495364,22.7205298 C112.495364,20.1933775 110.344371,18.5907285 108.137748,18.5907285 Z M108.196026,24.9854305 L105.374834,24.9854305 L105.374834,20.4291391 L108.196026,20.4291391 C109.682119,20.4291391 110.521854,21.6556291 110.521854,22.7072848 C110.521854,23.7483444 109.671523,24.9854305 108.196026,24.9854305 Z M120.447682,23.0860927 C119.006623,23.0860927 117.52053,23.7245033 116.90596,25.1152318 L118.664901,25.8463576 C119.043709,25.1152318 119.737748,24.8662252 120.471523,24.8662252 C121.499338,24.8662252 122.537748,25.4807947 122.561589,26.5774834 L122.561589,26.7178808 C122.206623,26.5165563 121.427815,26.2092715 120.495364,26.2092715 C118.596026,26.2092715 116.670199,27.2476821 116.670199,29.194702 C116.670199,30.9774834 118.227815,32.1218543 119.962914,32.1218543 C121.295364,32.1218543 122.029139,31.5205298 122.487417,30.8238411 L122.55894,30.8238411 L122.55894,31.8516556 L124.471523,31.8516556 L124.471523,26.7655629 C124.471523,24.397351 122.712583,23.0860927 120.447682,23.0860927 Z M120.198675,30.3576159 C119.549669,30.3576159 118.64106,30.0397351 118.64106,29.2238411 C118.64106,28.1960265 119.774834,27.8066225 120.741722,27.8066225 C121.615894,27.8066225 122.029139,27.994702 122.548344,28.2543046 C122.405298,29.4463576 121.398675,30.3470199 120.198675,30.3576159 Z M131.449007,23.3695364 L129.170861,29.1284768 L129.099338,29.1284768 L126.739073,23.3695364 L124.603974,23.3695364 L128.145695,31.4198675 L126.127152,35.8940397 L128.193377,35.8940397 L133.642384,23.3695364 C133.642384,23.3695364 131.449007,23.3695364 131.449007,23.3695364 Z M113.589404,31.8675497 L115.57351,31.8675497 L115.57351,18.5907285 L113.589404,18.5907285 L113.589404,31.8675497 Z" id="Shape" fill="#FFFFFF"></path>
                    <path d="M11.0834437,8.00264901 C10.7761589,8.33377483 10.5986755,8.8397351 10.5986755,9.50198675 L10.5986755,32.9907285 C10.5986755,33.6529801 10.7761589,34.1589404 11.0940397,34.4768212 L11.1761589,34.5483444 L24.3364238,21.3880795 L24.3364238,21.0940397 L11.1655629,7.93112583 C11.1655629,7.93112583 11.0834437,8.00264901 11.0834437,8.00264901 Z" id="Path" fill="url(#linearGradient-1)"></path>
                    <path d="M28.7152318,25.7880795 L24.3258278,21.3986755 L24.3258278,21.0913907 L28.7152318,16.7019868 L28.810596,16.7602649 L34.002649,19.7112583 C35.4887417,20.5483444 35.4887417,21.9311258 34.002649,22.7788079 L28.810596,25.7298013 C28.810596,25.7298013 28.7152318,25.7880795 28.7152318,25.7880795 Z" id="Path" fill="url(#linearGradient-2)"></path>
                    <path d="M28.810596,25.7298013 L24.3258278,21.2450331 L11.0834437,34.4874172 C11.5682119,35.0066225 12.381457,35.0649007 13.2900662,34.5589404 L28.810596,25.7298013" id="Path" fill="url(#linearGradient-3)"></path>
                    <path d="M28.810596,16.7602649 L13.2900662,7.94437086 C12.381457,7.42516556 11.5655629,7.49668874 11.0834437,8.01589404 L24.3258278,21.2450331 L28.810596,16.7602649 Z" id="Path" fill="url(#linearGradient-4)"></path>
                    <path d="M28.7152318,25.6344371 L13.3006623,34.392053 C12.4397351,34.8874172 11.6715232,34.8529801 11.1761589,34.402649 L11.0940397,34.4847682 L11.1761589,34.5562914 C11.6715232,35.0039735 12.4397351,35.0410596 13.3006623,34.5456954 L28.8211921,25.7298013 C28.8211921,25.7298013 28.7152318,25.6344371 28.7152318,25.6344371 Z" id="Path" fill="#000000" fill-rule="nonzero" opacity="0.2"></path>
                    <path d="M34.002649,22.6251656 L28.7019868,25.6344371 L28.797351,25.7298013 L33.989404,22.7788079 C34.7337748,22.3549669 35.0993377,21.7986755 35.0993377,21.2450331 C35.0543046,21.7536424 34.6754967,22.2357616 34.002649,22.6251656 Z" id="Path" fill="#000000" fill-rule="nonzero" opacity="0.12"></path>
                    <path d="M13.2900662,8.09801325 L34.002649,19.8649007 C34.6754967,20.2437086 35.0543046,20.7390728 35.1125828,21.2450331 C35.1125828,20.6913907 34.7470199,20.1350993 34.002649,19.7112583 L13.2900662,7.94437086 C11.8039735,7.09403974 10.5986755,7.80397351 10.5986755,9.50198675 L10.5986755,9.65562914 C10.5986755,7.95496689 11.8039735,7.25827815 13.2900662,8.09801325 Z" id="Path" fill="#FFFFFF" opacity="0.25"></path>
                </g>
            </g>
        </g>
    </g>
</svg>